<svg width="120" height="105" viewBox="0 0 120 105" fill="none" xmlns="http://www.w3.org/2000/svg">
<path fill-rule="evenodd" clip-rule="evenodd" d="M120 60C120 87.2299 101.861 110.223 77.0067 117.556L77.0029 104.042L81.6375 104.04C82.8584 104.035 84.0548 103.696 85.0972 103.06C87.0772 101.876 88.4196 99.7339 88.4209 97.255L88.4104 56.0129L31.5989 56.0234L31.6081 97.2615C31.613 98.3014 31.8597 99.3259 32.3289 100.254C33.4337 102.494 35.7173 104.045 38.389 104.045H43.0063L43.0114 117.561C18.148 110.234 0 87.2365 0 60C0 26.8629 26.8629 0 60 0C93.1371 0 120 26.8629 120 60ZM64.2926 118.123C64.2939 118.705 64.3747 119.279 64.5298 119.832C63.0345 119.943 61.5239 120 60 120C58.4805 120 56.9742 119.944 55.483 119.833C55.6376 119.28 55.7176 118.705 55.7179 118.123L55.714 104.044H64.2926V118.123ZM74.0224 30.9289L78.4576 22.8294C78.5197 22.7277 78.5605 22.6146 78.5777 22.4967C78.5949 22.3788 78.588 22.2586 78.5574 22.1435C78.5268 22.0284 78.4733 21.9206 78.3999 21.8267C78.3266 21.7329 78.2349 21.6548 78.1306 21.5974C78.0263 21.5399 77.9114 21.5041 77.7928 21.4923C77.6743 21.4804 77.5546 21.4927 77.4409 21.5284C77.3273 21.5641 77.222 21.6225 77.1315 21.7C77.0411 21.7775 76.9672 21.8725 76.9145 21.9793L72.4318 30.1594C68.5105 28.4261 64.2687 27.5366 59.9815 27.5484C55.7039 27.5347 51.4713 28.4216 47.559 30.1514L43.0737 21.9886C43.0189 21.8866 42.9445 21.7965 42.8547 21.7236C42.7649 21.6506 42.6615 21.5961 42.5506 21.5633C42.4396 21.5306 42.3232 21.5201 42.2082 21.5326C42.0931 21.5451 41.9817 21.5803 41.8804 21.6361C41.7781 21.6907 41.6877 21.7651 41.6146 21.8551C41.5415 21.945 41.487 22.0487 41.4544 22.1599C41.4219 22.2712 41.4118 22.3878 41.4249 22.503C41.438 22.6182 41.4739 22.7296 41.5306 22.8307L45.9684 30.9223C37.2485 35.4209 31.3587 43.9811 31.3639 53.8124L88.6057 53.8071C88.6084 43.9784 82.7291 35.4328 74.0224 30.9289ZM46.9637 43.4438C46.3272 43.4437 45.7169 43.1907 45.267 42.7405C44.8171 42.2903 44.5644 41.6799 44.5646 41.0434C44.5648 40.407 44.8178 39.7966 45.2679 39.3467C45.7181 38.8968 46.3286 38.6441 46.965 38.6443C48.2929 38.6443 49.3661 39.7267 49.3674 41.0441C49.3667 41.681 49.1131 42.2916 48.6624 42.7416C48.2116 43.1916 47.6006 43.4442 46.9637 43.4438ZM73.0284 43.4386C72.7132 43.4389 72.401 43.3771 72.1096 43.2566C71.8183 43.1361 71.5537 42.9594 71.3307 42.7365C71.1078 42.5135 70.9311 42.2489 70.8106 41.9576C70.6901 41.6662 70.6283 41.354 70.6286 41.0388C70.6286 39.7241 71.7031 38.6417 73.0284 38.6364C73.6639 38.6413 74.2719 38.8965 74.7204 39.3467C75.1689 39.797 75.4218 40.4059 75.4242 41.0414C75.4242 41.677 75.1718 42.2865 74.7226 42.736C74.2733 43.1855 73.6639 43.4382 73.0284 43.4386ZM103.088 58.7387C103.407 59.5095 103.572 60.3357 103.572 61.1701L103.576 87.78C103.577 88.6146 103.413 89.4411 103.094 90.2124C102.775 90.9836 102.308 91.6844 101.718 92.2748C101.128 92.8651 100.427 93.3333 99.6561 93.6526C98.885 93.972 98.0586 94.1361 97.224 94.1358C96.3892 94.1368 95.5624 93.9733 94.7909 93.6544C94.0194 93.3355 93.3184 92.8677 92.7279 92.2776C92.1375 91.6875 91.6692 90.9867 91.3498 90.2154C91.0305 89.4441 90.8664 88.6174 90.8669 87.7826L90.8643 61.1728C90.8641 60.3384 91.0283 59.5121 91.3474 58.7411C91.6666 57.9702 92.1344 57.2697 92.7243 56.6795C93.3142 56.0894 94.0145 55.6212 94.7854 55.3018C95.5562 54.9823 96.3824 54.8178 97.2168 54.8176C98.0512 54.8174 98.8774 54.9816 99.6484 55.3008C100.419 55.6199 101.12 56.0878 101.71 56.6777C102.3 57.2676 102.768 57.9679 103.088 58.7387ZM18.2852 56.6846C19.4767 55.4931 21.0923 54.8233 22.7773 54.8222C24.4628 54.8222 26.0793 55.4914 27.2716 56.6827C28.4638 57.874 29.1344 59.4899 29.1358 61.1754V87.7892C29.1365 88.6241 28.9727 89.451 28.6537 90.2225C28.3348 90.9941 27.867 91.6952 27.277 92.2859C26.687 92.8767 25.9864 93.3454 25.2153 93.6653C24.4441 93.9851 23.6175 94.15 22.7826 94.1503C21.489 94.1477 20.2878 93.757 19.2833 93.0917C18.4052 92.5137 17.6844 91.7265 17.1858 90.801C16.6872 89.8754 16.4264 88.8405 16.4268 87.7892L16.4229 61.1767C16.4239 59.4917 17.0937 57.876 18.2852 56.6846Z" fill="#6032BD"/>
</svg>
