<svg width="137" height="137" viewBox="0 0 137 137" fill="none" xmlns="http://www.w3.org/2000/svg">
<path d="M129.193 72.5809C129.078 73.0471 128.816 73.4325 128.405 73.7373C127.995 74.0421 127.53 74.1794 127.011 74.1493C126.588 74.1248 126.211 73.9948 125.88 73.7592C125.556 73.5321 125.307 73.2092 125.131 72.7903C124.962 72.3718 124.895 71.8791 124.928 71.3121L125.096 68.4129L133.47 68.8981L133.307 71.7134C133.257 72.56 133.025 73.1916 132.608 73.6082C132.191 74.0327 131.67 74.227 131.047 74.1909C130.528 74.1608 130.113 73.9965 129.802 73.698C129.499 73.4 129.296 73.0276 129.193 72.5809ZM129.719 69.5222L129.606 71.475C129.573 72.042 129.68 72.4849 129.926 72.8037C130.179 73.1309 130.542 73.3081 131.013 73.3354C131.476 73.3623 131.849 73.2276 132.13 72.9314C132.411 72.6432 132.569 72.2036 132.603 71.6125L132.714 69.6958L129.719 69.5222ZM125.638 71.2931C125.603 71.9001 125.719 72.3796 125.987 72.7317C126.255 73.0918 126.64 73.2864 127.144 73.3156C127.647 73.3447 128.056 73.1882 128.373 72.8459C128.697 72.5121 128.876 72.0457 128.911 71.4467L129.024 69.482L125.754 69.2925L125.638 71.2931Z" fill="white"/>
<path d="M132.228 76.7946C132.252 76.6283 132.332 76.4943 132.468 76.3925C132.603 76.2908 132.758 76.2524 132.933 76.2774C133.107 76.3024 133.241 76.3822 133.335 76.5169C133.436 76.6528 133.475 76.8038 133.452 76.9701C133.428 77.1364 133.348 77.2704 133.212 77.3722C133.084 77.475 132.933 77.514 132.759 77.489C132.585 77.464 132.447 77.3836 132.345 77.2478C132.243 77.1119 132.204 76.9609 132.228 76.7946ZM130.945 77.0348L124.459 76.1042L124.579 75.2727L131.064 76.2033L130.945 77.0348Z" fill="white"/>
<path d="M126.345 84.8178C126.065 84.7499 125.853 84.6903 125.709 84.6389L126.991 79.3562C126.503 79.2625 126.063 79.2792 125.67 79.4061C125.277 79.533 124.949 79.7458 124.687 80.0445C124.433 80.345 124.257 80.6975 124.159 81.1017C124.031 81.6304 124.052 82.1047 124.221 82.5245C124.389 82.9522 124.677 83.2771 125.084 83.4994L124.875 84.3624C124.29 84.056 123.862 83.5981 123.59 82.9888C123.324 82.3891 123.284 81.7044 123.471 80.9348C123.616 80.3362 123.879 79.8318 124.258 79.4217C124.645 79.0135 125.117 78.7327 125.673 78.5795C126.234 78.4359 126.846 78.4443 127.506 78.6046C128.167 78.765 128.714 79.0377 129.148 79.4227C129.581 79.8078 129.873 80.2695 130.022 80.8079C130.171 81.3463 130.172 81.9187 130.025 82.5251C129.878 83.1315 129.617 83.628 129.244 84.0148C128.868 84.4094 128.426 84.6724 127.916 84.804C127.413 84.9453 126.889 84.9499 126.345 84.8178ZM126.569 83.9955C127.041 84.1184 127.469 84.1193 127.852 83.9983C128.234 83.885 128.552 83.6781 128.806 83.3776C129.06 83.077 129.236 82.7246 129.334 82.3203C129.481 81.7139 129.412 81.1497 129.127 80.6278C128.842 80.1059 128.352 79.7358 127.655 79.5175L126.569 83.9955Z" fill="white"/>
<path d="M127.47 90.932C127.183 91.6619 126.723 92.1685 126.087 92.4519C125.459 92.7383 124.717 92.7135 123.86 92.3774L120.286 90.9746L120.588 90.2038L124.074 91.5715C124.736 91.8316 125.308 91.8628 125.79 91.665C126.269 91.4747 126.62 91.0929 126.845 90.5194C127.076 89.9311 127.074 89.3889 126.839 88.8927C126.604 88.3966 126.126 88.0068 125.403 87.7233L122.074 86.417L122.381 85.635L128.48 88.0285L128.174 88.8105L127.135 88.4028C127.431 88.7425 127.604 89.1329 127.655 89.5737C127.713 90.0176 127.651 90.4703 127.47 90.932Z" fill="white"/>
<path d="M119.119 95.1677L123.092 99.857L122.666 100.636L118.179 95.1869L118.633 94.3551L125.643 95.1928L125.211 95.9825L119.119 95.1677Z" fill="white"/>
<path d="M115.791 105.474C115.557 105.305 115.383 105.17 115.27 105.068L118.451 100.66C118.035 100.389 117.621 100.239 117.209 100.208C116.797 100.177 116.414 100.25 116.059 100.428C115.71 100.61 115.414 100.87 115.17 101.208C114.852 101.649 114.692 102.096 114.691 102.549C114.685 103.008 114.828 103.417 115.121 103.777L114.601 104.497C114.176 103.993 113.953 103.407 113.931 102.74C113.911 102.084 114.133 101.435 114.596 100.793C114.957 100.294 115.39 99.9257 115.896 99.6892C116.409 99.4574 116.951 99.3755 117.524 99.4434C118.098 99.5226 118.661 99.7611 119.213 100.159C119.764 100.557 120.168 101.016 120.424 101.536C120.679 102.057 120.775 102.594 120.71 103.149C120.645 103.704 120.43 104.234 120.064 104.74C119.699 105.246 119.27 105.608 118.778 105.825C118.282 106.048 117.772 106.125 117.251 106.054C116.732 105.995 116.245 105.801 115.791 105.474ZM116.309 104.797C116.7 105.089 117.096 105.251 117.496 105.284C117.892 105.323 118.265 105.252 118.613 105.069C118.962 104.887 119.258 104.627 119.502 104.29C119.867 103.784 120.016 103.235 119.949 102.644C119.882 102.054 119.568 101.526 119.006 101.061L116.309 104.797Z" fill="white"/>
<path d="M114.624 111.472C114.086 112.043 113.469 112.341 112.774 112.367C112.085 112.398 111.405 112.098 110.736 111.467L107.943 108.831L108.511 108.229L111.234 110.798C111.752 111.287 112.271 111.529 112.792 111.526C113.307 111.528 113.776 111.305 114.199 110.857C114.632 110.397 114.833 109.893 114.8 109.345C114.767 108.797 114.468 108.257 113.904 107.724L111.303 105.27L111.879 104.659L116.645 109.156L116.069 109.767L115.257 109.001C115.405 109.426 115.42 109.853 115.302 110.281C115.191 110.715 114.964 111.112 114.624 111.472Z" fill="white"/>
<path d="M111.12 116.462C111.246 116.351 111.394 116.301 111.563 116.312C111.733 116.323 111.875 116.395 111.992 116.527C112.108 116.66 112.157 116.808 112.141 116.971C112.13 117.14 112.061 117.28 111.935 117.391C111.809 117.502 111.661 117.552 111.491 117.541C111.327 117.536 111.187 117.467 111.071 117.335C110.955 117.202 110.903 117.051 110.914 116.882C110.925 116.713 110.994 116.573 111.12 116.462ZM109.989 115.81L105.669 110.884L106.301 110.33L110.621 115.256L109.989 115.81Z" fill="white"/>
<path d="M106.35 114.777C106.744 115.322 106.977 115.879 107.052 116.447C107.131 117.021 107.059 117.556 106.835 118.053C106.61 118.561 106.254 118.991 105.768 119.342C105.301 119.679 104.797 119.87 104.257 119.914C103.717 119.959 103.228 119.863 102.791 119.626L104.982 122.662L104.301 123.153L99.1036 115.953L99.7847 115.462L100.642 116.649C100.537 116.162 100.583 115.665 100.779 115.158C100.98 114.658 101.331 114.227 101.83 113.867C102.317 113.516 102.836 113.313 103.389 113.259C103.936 113.21 104.469 113.313 104.99 113.569C105.503 113.83 105.957 114.233 106.35 114.777ZM101.702 118.118C102.011 118.546 102.37 118.859 102.78 119.057C103.189 119.255 103.609 119.331 104.04 119.286C104.465 119.246 104.859 119.095 105.222 118.833C105.599 118.561 105.875 118.233 106.052 117.849C106.228 117.465 106.287 117.048 106.228 116.597C106.167 116.158 105.978 115.717 105.659 115.276C105.346 114.841 104.985 114.52 104.578 114.311C104.168 114.113 103.751 114.034 103.327 114.074C102.906 114.121 102.508 114.28 102.132 114.552C101.769 114.814 101.501 115.14 101.329 115.531C101.151 115.926 101.091 116.349 101.15 116.8C101.209 117.25 101.393 117.69 101.702 118.118Z" fill="white"/>
<path d="M94.794 118.433L97.5561 119.917L97.6985 116.816L98.4745 116.385L98.2219 120.274L101.639 122.122L100.811 122.583L98.0873 121.118L97.9379 124.181L97.1724 124.607L97.4215 120.761L93.9656 118.894L94.794 118.433Z" fill="white"/>
<path d="M87.8394 125.165C88.0201 125.813 88.0511 126.414 87.9323 126.971C87.808 127.537 87.5551 128.015 87.1736 128.404C86.7866 128.802 86.3041 129.082 85.7262 129.244C85.1252 129.411 84.5702 129.417 84.0612 129.26C83.5446 129.105 83.1297 128.839 82.8166 128.461L83.2038 129.848L82.3948 130.074L80.6331 123.763L81.4422 123.537L81.8326 124.936C81.9125 124.449 82.1322 124.001 82.4918 123.593C82.8459 123.195 83.3235 122.913 83.9245 122.745C84.4947 122.586 85.0486 122.576 85.5862 122.717C86.1161 122.86 86.5809 123.141 86.9805 123.561C87.3725 123.983 87.6588 124.518 87.8394 125.165ZM82.323 126.693C82.465 127.201 82.6937 127.619 83.0093 127.946C83.3249 128.274 83.6928 128.491 84.1131 128.598C84.5256 128.707 84.9476 128.701 85.3791 128.581C85.826 128.456 86.1988 128.244 86.4973 127.945C86.7958 127.645 86.9953 127.274 87.0958 126.831C87.1907 126.397 87.1651 125.918 87.0188 125.394C86.8747 124.878 86.6476 124.451 86.3376 124.114C86.022 123.787 85.6579 123.569 85.2454 123.46C84.835 123.359 84.4064 123.37 83.9595 123.495C83.528 123.615 83.164 123.829 82.8677 124.136C82.5636 124.445 82.3613 124.822 82.2608 125.265C82.1603 125.708 82.181 126.184 82.323 126.693Z" fill="white"/>
<path d="M64.8669 131.728C64.0989 131.719 63.4778 131.468 63.0035 130.974C62.5211 130.489 62.2852 129.786 62.2958 128.866L62.3403 125.026L63.1683 125.036L63.1249 128.78C63.1167 129.492 63.2823 130.038 63.622 130.418C63.9616 130.798 64.4274 130.991 65.0193 130.998C65.6353 131.005 66.1296 130.807 66.5023 130.403C66.875 129.999 67.0659 129.409 67.0749 128.633L67.116 125.082L67.9439 125.091L67.9006 128.835C67.8923 129.547 68.058 130.093 68.3976 130.473C68.7373 130.853 69.2071 131.046 69.807 131.053C70.423 131.06 70.9173 130.862 71.29 130.458C71.6627 130.055 71.8536 129.465 71.8625 128.689L71.9037 125.137L72.7436 125.147L72.6677 131.698L71.8278 131.689L71.8409 130.561C71.6282 130.966 71.3286 131.271 70.9422 131.474C70.5557 131.686 70.1265 131.789 69.6546 131.784C69.0866 131.777 68.5922 131.635 68.1714 131.358C67.7426 131.081 67.4352 130.678 67.2493 130.148C67.0673 130.665 66.7628 131.058 66.3356 131.325C65.9004 131.6 65.4108 131.734 64.8669 131.728Z" fill="white"/>
<path d="M59.6551 132.344C59.8216 132.366 59.9562 132.445 60.059 132.58C60.1618 132.715 60.2014 132.87 60.1777 133.044C60.154 133.219 60.0752 133.353 59.9413 133.448C59.8062 133.551 59.6555 133.591 59.489 133.568C59.3225 133.546 59.1879 133.467 59.0851 133.332C58.9812 133.205 58.9411 133.054 58.9648 132.88C58.9885 132.705 59.0678 132.567 59.2029 132.464C59.3379 132.361 59.4887 132.321 59.6551 132.344ZM59.4051 131.062L60.2859 124.57L61.1183 124.683L60.2375 131.175L59.4051 131.062Z" fill="white"/>
<path d="M49.1413 127.344C48.7945 127.685 48.3613 127.914 47.8415 128.03C47.3115 128.151 46.7535 128.104 46.1677 127.889C45.6119 127.686 45.1606 127.371 44.8138 126.946C44.4568 126.525 44.2425 126.029 44.1709 125.457C44.0891 124.89 44.1638 124.292 44.3952 123.661C44.6265 123.03 44.958 122.521 45.3896 122.134C45.8138 121.744 46.2993 121.5 46.8464 121.402C47.3859 121.302 47.9336 121.354 48.4894 121.558C49.0678 121.77 49.5214 122.089 49.8504 122.517C50.1766 122.952 50.3617 123.411 50.4055 123.896L51.9671 119.637L52.7444 119.922L49.423 128.981L48.6456 128.696L49.1413 127.344ZM45.1951 123.954C45.0078 124.465 44.9481 124.941 45.0159 125.384C45.0735 125.831 45.2392 126.215 45.5131 126.537C45.787 126.859 46.1418 127.1 46.5774 127.26C46.998 127.414 47.422 127.455 47.8494 127.381C48.2693 127.305 48.6495 127.116 48.99 126.815C49.3305 126.514 49.5916 126.116 49.7734 125.62C49.9552 125.124 50.0135 124.651 49.9484 124.201C49.8833 123.752 49.7152 123.362 49.4441 123.032C49.1654 122.7 48.8158 122.457 48.3952 122.303C47.9595 122.143 47.5331 122.097 47.116 122.166C46.6962 122.242 46.3197 122.432 45.9867 122.736C45.6435 123.045 45.3796 123.451 45.1951 123.954Z" fill="white"/>
<path d="M42.1092 118.771C42.655 119.057 43.0847 119.435 43.3981 119.906C43.7007 120.38 43.8629 120.908 43.8845 121.488C43.8953 122.071 43.7431 122.664 43.4279 123.267C43.1128 123.869 42.7108 124.327 42.222 124.64C41.7295 124.96 41.2004 125.126 40.6349 125.137C40.0656 125.155 39.508 125.022 38.9622 124.736C38.4163 124.451 37.9886 124.069 37.6788 123.591C37.3583 123.116 37.1926 122.587 37.1818 122.004C37.1602 121.424 37.307 120.832 37.6222 120.23C37.9336 119.634 38.3356 119.177 38.8281 118.856C39.3206 118.536 39.855 118.369 40.4314 118.354C41.0041 118.347 41.5633 118.486 42.1092 118.771ZM41.7699 119.42C41.3871 119.22 40.9882 119.12 40.5731 119.119C40.1543 119.126 39.7548 119.251 39.3747 119.494C38.9837 119.741 38.6547 120.12 38.3878 120.63C38.1208 121.141 37.9957 121.622 38.0125 122.073C38.0256 122.531 38.1507 122.93 38.3878 123.271C38.6212 123.619 38.9293 123.893 39.3121 124.093C39.6949 124.293 40.0957 124.39 40.5145 124.384C40.9295 124.384 41.329 124.259 41.7129 124.008C42.086 123.761 42.406 123.382 42.673 122.872C42.9399 122.361 43.0704 121.879 43.0644 121.424C43.0476 120.973 42.926 120.576 42.6997 120.231C42.4626 119.891 42.1527 119.62 41.7699 119.42Z" fill="white"/>
<path d="M34.0475 120.431C33.6688 120.669 33.2608 120.778 32.8237 120.757C32.3798 120.732 31.9278 120.567 31.4676 120.262L31.9513 119.532L32.1414 119.658C32.6483 119.993 33.1457 120.126 33.6336 120.056C34.1216 119.986 34.5776 119.63 35.0016 118.99L37.0227 115.939L37.723 116.403L34.105 121.865L33.4047 121.401L34.0475 120.431Z" fill="white"/>
<path d="M29.8278 118.004L32.3158 114.785C32.5605 114.469 32.6691 114.204 32.6418 113.991C32.6145 113.777 32.449 113.553 32.1452 113.319L31.5376 112.849L31.9779 112.279L32.69 112.83C33.1583 113.192 33.4233 113.568 33.4848 113.96C33.5414 114.357 33.3764 114.806 32.9899 115.306L30.5019 118.525L31.2234 119.083L30.7904 119.643L30.0689 119.085L29.0634 120.386L28.3893 119.864L29.3948 118.564L27.9707 117.463L28.4037 116.903L29.8278 118.004Z" fill="white"/>
<path d="M25.1371 114.044L26.2681 115.065L30.185 110.728L30.8084 111.291L26.8915 115.628L27.5684 116.24L27.0939 116.765L26.417 116.154L26.1114 116.492C25.6342 117.021 25.1494 117.289 24.657 117.297C24.1587 117.3 23.6068 117.028 23.0012 116.481L23.4837 115.946C23.8875 116.311 24.2422 116.491 24.5478 116.487C24.8475 116.477 25.1609 116.291 25.488 115.929L25.7936 115.591L24.6626 114.569L25.1371 114.044Z" fill="white"/>
<path d="M26.2015 106.689C26.6143 107.146 26.8861 107.65 27.0166 108.2C27.1359 108.75 27.105 109.301 26.924 109.852C26.7317 110.403 26.3832 110.907 25.8785 111.362C25.3739 111.818 24.838 112.108 24.2709 112.232C23.6979 112.362 23.1443 112.333 22.61 112.148C22.0697 111.967 21.5932 111.648 21.1803 111.191C20.7675 110.734 20.4987 110.228 20.3741 109.672C20.2381 109.115 20.2663 108.562 20.4587 108.011C20.6397 107.459 20.9825 106.956 21.4872 106.5C21.9859 106.049 22.5218 105.76 23.0948 105.63C23.6678 105.501 24.2271 105.529 24.7727 105.716C25.3123 105.907 25.7886 106.232 26.2015 106.689ZM25.6582 107.18C25.3687 106.859 25.0293 106.626 24.6402 106.482C24.2451 106.343 23.8271 106.322 23.386 106.418C22.9336 106.514 22.4937 106.755 22.0663 107.141C21.6388 107.527 21.3546 107.935 21.2138 108.364C21.0671 108.798 21.0458 109.216 21.15 109.618C21.2482 110.025 21.4421 110.389 21.7316 110.709C22.0212 111.03 22.3635 111.26 22.7585 111.399C23.1477 111.543 23.5658 111.565 24.0127 111.463C24.4484 111.36 24.88 111.116 25.3075 110.73C25.735 110.344 26.0248 109.937 26.1769 109.508C26.3176 109.079 26.3416 108.664 26.2488 108.263C26.1446 107.861 25.9478 107.5 25.6582 107.18Z" fill="white"/>
<path d="M15.2265 107.509L22.3499 102.207L22.8515 102.881L15.728 108.183L15.2265 107.509Z" fill="white"/>
<path d="M14.1443 104.098C14.2366 104.238 14.2655 104.391 14.2311 104.557C14.1967 104.724 14.106 104.855 13.9589 104.952C13.8118 105.048 13.6585 105.077 13.499 105.038C13.3328 105.004 13.2036 104.917 13.1114 104.776C13.0191 104.636 12.9902 104.483 13.0246 104.316C13.0523 104.155 13.1397 104.025 13.2868 103.929C13.4339 103.832 13.5905 103.801 13.7567 103.835C13.9229 103.87 14.0521 103.957 14.1443 104.098ZM14.9467 103.068L20.4224 99.4698L20.8837 100.172L15.4079 103.77L14.9467 103.068Z" fill="white"/>
<path d="M17.9473 95.1659C18.2348 95.7107 18.3741 96.2659 18.365 96.8315C18.3452 97.3938 18.1796 97.9199 17.8683 98.4098C17.5462 98.8964 17.0844 99.2984 16.483 99.6158C15.8817 99.9332 15.2909 100.082 14.7107 100.063C14.1235 100.047 13.5939 99.8833 13.1218 99.5716C12.6427 99.2636 12.2593 98.8373 11.9718 98.2925C11.6843 97.7477 11.5486 97.1906 11.5647 96.6213C11.57 96.0486 11.7337 95.519 12.0558 95.0324C12.3671 94.5424 12.8235 94.1387 13.4249 93.8213C14.0192 93.5077 14.6099 93.3587 15.1972 93.3744C15.7844 93.3902 16.3194 93.5555 16.8023 93.8706C17.2781 94.1894 17.6598 94.6211 17.9473 95.1659ZM17.2999 95.5076C17.0983 95.1255 16.8267 94.8166 16.4851 94.5807C16.1365 94.3486 15.7365 94.225 15.2853 94.2099C14.8233 94.1914 14.3375 94.3166 13.8281 94.5854C13.3187 94.8543 12.943 95.1793 12.7008 95.5603C12.4516 95.9451 12.328 96.3451 12.33 96.7601C12.3249 97.179 12.4231 97.5794 12.6248 97.9614C12.8264 98.3435 13.1016 98.6506 13.4502 98.8827C13.7918 99.1185 14.1917 99.2421 14.65 99.2535C15.0975 99.2616 15.576 99.1312 16.0854 98.8623C16.5948 98.5935 16.9759 98.2702 17.2289 97.8925C17.471 97.5114 17.5965 97.115 17.6053 96.7033C17.6034 96.2882 17.5016 95.8896 17.2999 95.5076Z" fill="white"/>
<path d="M7.5593 78.5138C7.55914 78.0337 7.72162 77.5964 8.04674 77.202C8.37185 76.8076 8.78999 76.5627 9.30115 76.4672C9.71794 76.3894 10.1152 76.425 10.4931 76.5742C10.8615 76.717 11.1815 76.9705 11.453 77.3349C11.7167 77.7007 11.9006 78.1628 12.0049 78.7211L12.5381 81.5758L4.29271 83.1158L3.77495 80.3438C3.61925 79.5102 3.69368 78.8411 3.99823 78.3366C4.30131 77.8243 4.75955 77.5108 5.37294 77.3962C5.8841 77.3008 6.3266 77.3605 6.70043 77.5756C7.0664 77.7921 7.35269 78.1048 7.5593 78.5138ZM7.78345 81.6093L7.42432 79.6865C7.32003 79.1282 7.11023 78.7238 6.7949 78.4735C6.47024 78.2167 6.07592 78.1317 5.61194 78.2183C5.15583 78.3035 4.82666 78.5237 4.62443 78.8789C4.42074 79.2262 4.37323 79.6908 4.48193 80.2727L4.83444 82.1601L7.78345 81.6093ZM11.32 78.9101C11.2084 78.3124 10.9801 77.8749 10.6353 77.5975C10.2891 77.3122 9.86824 77.2158 9.3728 77.3084C8.87737 77.4009 8.51722 77.6513 8.29235 78.0595C8.05814 78.4613 7.99612 78.9572 8.10628 79.547L8.46761 81.4815L11.6879 80.88L11.32 78.9101Z" fill="white"/>
<path d="M3.58965 74.9989C3.60582 75.1661 3.55996 75.3152 3.45207 75.4462C3.34418 75.5772 3.20264 75.6512 3.02746 75.6681C2.85227 75.6851 2.70317 75.6392 2.58014 75.5305C2.44914 75.4226 2.37556 75.2851 2.35939 75.1179C2.34322 74.9506 2.38908 74.8015 2.49698 74.6705C2.59691 74.5403 2.73446 74.4667 2.90965 74.4498C3.08483 74.4329 3.23792 74.4783 3.36891 74.5862C3.4999 74.6941 3.57348 74.8317 3.58965 74.9989ZM4.77949 74.4619L11.3011 73.8313L11.3819 74.6674L4.86034 75.298L4.77949 74.4619Z" fill="white"/>
<path d="M7.41453 65.4619C7.70253 65.463 7.9225 65.4718 8.07444 65.4884L8.05345 70.9244C8.54954 70.9023 8.974 70.7839 9.32683 70.5693C9.67966 70.3546 9.94876 70.0717 10.1341 69.7204C10.3115 69.3691 10.401 68.9854 10.4026 68.5694C10.4047 68.0254 10.2744 67.5689 10.0118 67.1999C9.7493 66.8229 9.39426 66.5735 8.94672 66.4518L8.95015 65.5638C9.58953 65.7263 10.1122 66.0723 10.5182 66.6018C10.9161 67.1234 11.1136 67.7802 11.1106 68.5722C11.1082 69.1881 10.97 69.7396 10.6962 70.2266C10.4143 70.7135 10.0208 71.096 9.51573 71.374C9.00268 71.644 8.40616 71.7777 7.72617 71.7751C7.04617 71.7725 6.4507 71.6342 5.93975 71.3602C5.42881 71.0862 5.03828 70.7047 4.76816 70.2157C4.49805 69.7266 4.3642 69.1701 4.36661 68.5461C4.36901 67.9221 4.50711 67.3787 4.7809 66.9157C5.05472 66.4448 5.42411 66.0862 5.88906 65.84C6.34605 65.5857 6.85454 65.4597 7.41453 65.4619ZM7.38725 66.3138C6.89928 66.3039 6.4829 66.4023 6.1381 66.6089C5.79333 66.8076 5.53226 67.0826 5.35491 67.4339C5.17755 67.7852 5.08807 68.1689 5.08646 68.5849C5.08405 69.2089 5.282 69.7417 5.6803 70.1832C6.07859 70.6247 6.64165 70.8709 7.36946 70.9217L7.38725 66.3138Z" fill="white"/>
<path d="M4.86101 59.9233C4.9664 59.1464 5.29423 58.5451 5.84447 58.1192C6.38679 57.6922 7.11378 57.5405 8.02543 57.6642L11.8306 58.1804L11.7193 59.0009L8.00925 58.4976C7.30371 58.4019 6.74045 58.5071 6.31947 58.8133C5.89956 59.1116 5.6482 59.5659 5.5654 60.1763C5.48044 60.8026 5.61087 61.3289 5.95669 61.7552C6.30251 62.1816 6.8599 62.4469 7.62886 62.5513L11.1724 63.032L11.0595 63.8644L4.56695 62.9836L4.67987 62.1512L5.78574 62.3012C5.41734 62.0413 5.15642 61.7032 5.00301 61.2868C4.84167 60.8693 4.79433 60.4148 4.86101 59.9233Z" fill="white"/>
<path d="M11.9609 53.8442L6.98837 50.2316L7.21738 49.3736L12.87 53.6024L12.6255 54.5184L5.61739 55.3677L5.8495 54.4982L11.9609 53.8442Z" fill="white"/>
<path d="M12.6886 43.1866C12.9555 43.2948 13.1564 43.3849 13.2913 43.4568L11.2487 48.4945C11.7174 48.6587 12.1554 48.7068 12.5628 48.6388C12.9702 48.5709 13.3252 48.4084 13.628 48.1514C13.9234 47.8913 14.1492 47.5685 14.3055 47.183C14.5099 46.6788 14.5589 46.2067 14.4526 45.7664C14.3492 45.3188 14.1125 44.9552 13.7424 44.6757L14.076 43.8527C14.609 44.2415 14.9654 44.7572 15.1451 45.3998C15.3204 46.032 15.2592 46.715 14.9617 47.449C14.7302 48.0199 14.3968 48.4803 13.9613 48.8304C13.5185 49.1774 13.0109 49.386 12.4386 49.4561C11.862 49.5158 11.2585 49.4179 10.6284 49.1624C9.99819 48.9069 9.49696 48.5569 9.12468 48.1124C8.75239 47.668 8.5319 47.1685 8.46319 46.6141C8.39448 46.0597 8.47736 45.4933 8.71182 44.915C8.94628 44.3367 9.27672 43.8837 9.70313 43.5559C10.1325 43.2207 10.6088 43.0253 11.132 42.9699C11.6508 42.904 12.1697 42.9762 12.6886 43.1866ZM12.3463 43.9672C11.897 43.7764 11.4739 43.7128 11.077 43.7763C10.6831 43.8324 10.3384 43.9904 10.043 44.2505C9.74768 44.5106 9.52184 44.8334 9.36553 45.2189C9.13107 45.7972 9.11652 46.3654 9.32189 46.9234C9.52725 47.4815 9.95825 47.9195 10.6149 48.2375L12.3463 43.9672Z" fill="white"/>
<path d="M12.4131 37.0364C12.8018 36.3556 13.3311 35.9208 14.0008 35.7321C14.6636 35.5394 15.3945 35.6712 16.1934 36.1274L19.528 38.0316L19.1174 38.7506L15.8661 36.894C15.2479 36.5409 14.6862 36.4275 14.1812 36.5537C13.6801 36.6729 13.2768 37 12.9714 37.5349C12.658 38.0837 12.5817 38.6206 12.7426 39.1454C12.9035 39.6703 13.3209 40.1251 13.9948 40.5099L17.1001 42.2832L16.6836 43.0127L10.9939 39.7636L11.4105 39.0342L12.3796 39.5876C12.1354 39.2086 12.0201 38.7973 12.0339 38.3538C12.0407 37.9063 12.1671 37.4672 12.4131 37.0364Z" fill="white"/>
<path d="M14.6233 31.373C14.5265 31.5103 14.3945 31.5934 14.2272 31.6223C14.06 31.6512 13.9045 31.6149 13.7607 31.5134C13.6168 31.412 13.5337 31.28 13.5114 31.1174C13.4825 30.9501 13.5165 30.7979 13.6133 30.6606C13.7101 30.5233 13.8421 30.4402 14.0094 30.4113C14.1701 30.3778 14.3223 30.4118 14.4661 30.5132C14.61 30.6146 14.6963 30.749 14.7252 30.9162C14.7541 31.0834 14.7202 31.2357 14.6233 31.373ZM15.8755 31.7421L21.2297 35.5185L20.7455 36.2049L15.3913 32.4286L15.8755 31.7421Z" fill="white"/>
<path d="M19.6052 31.9251C19.0951 31.4876 18.7374 31.0015 18.532 30.4669C18.3205 29.9271 18.2652 29.3895 18.3661 28.8542C18.4661 28.3075 18.7115 27.8065 19.1022 27.3512C19.4772 26.914 19.9221 26.6105 20.4367 26.4406C20.9513 26.2708 21.449 26.2498 21.9296 26.3775L19.0881 23.9397L19.635 23.3022L26.3747 29.0842L25.8277 29.7217L24.7166 28.7685C24.9324 29.2172 25.0042 29.7109 24.932 30.2498C24.8537 30.7834 24.6139 31.2839 24.2129 31.7515C23.8222 32.2068 23.3643 32.5255 22.8393 32.7075C22.3194 32.8834 21.7766 32.9079 21.2109 32.781C20.6505 32.648 20.1152 32.3627 19.6052 31.9251ZM23.3413 27.5886C22.9406 27.2448 22.5181 27.0247 22.0739 26.9282C21.6296 26.8316 21.2032 26.8558 20.7944 27.0005C20.3908 27.1391 20.0432 27.3785 19.7515 27.7185C19.4494 28.0707 19.2574 28.4541 19.1757 28.8688C19.0939 29.2836 19.1345 29.7031 19.2975 30.1275C19.4596 30.5406 19.7471 30.9243 20.1599 31.2785C20.5667 31.6275 20.9927 31.8559 21.4378 31.9637C21.882 32.0602 22.3059 32.0391 22.7095 31.9005C23.1069 31.7566 23.4567 31.5086 23.7589 31.1564C24.0506 30.8164 24.2343 30.4364 24.3099 30.0165C24.3908 29.5905 24.3498 29.1653 24.1868 28.7409C24.0239 28.3165 23.7421 27.9324 23.3413 27.5886Z" fill="white"/>
<path d="M29.8983 25.7024L26.8644 24.9102L27.4559 27.957L26.8034 28.5593L26.1332 24.7196L22.3769 23.7286L23.0735 23.0856L26.0654 23.8677L25.4895 20.8554L26.1332 20.2612L26.7966 24.0582L30.5949 25.0594L29.8983 25.7024Z" fill="white"/>
<path d="M35.303 17.285C34.9763 16.6978 34.8057 16.1198 34.7913 15.551C34.7801 14.9714 34.9145 14.448 35.1947 13.9808C35.478 13.5027 35.8818 13.1178 36.4061 12.8261C36.9513 12.5226 37.4897 12.3878 38.0212 12.4217C38.5597 12.4516 39.0253 12.6137 39.4179 12.9079L38.7177 11.6496L39.4517 11.2412L42.6376 16.9664L41.9036 17.3749L41.1975 16.1061C41.2336 16.5987 41.1244 17.0852 40.8699 17.5656C40.6184 18.0351 40.2201 18.4215 39.6748 18.725C39.1575 19.0128 38.6211 19.1511 38.0655 19.1398C37.5169 19.1247 36.9993 18.9595 36.5126 18.6444C36.033 18.3253 35.6298 17.8722 35.303 17.285ZM40.3106 14.5122C40.0539 14.0509 39.7339 13.6979 39.3507 13.4534C38.9674 13.2089 38.559 13.0837 38.1254 13.0778C37.6988 13.068 37.2898 13.172 36.8983 13.3898C36.4929 13.6155 36.1799 13.9086 35.9595 14.2693C35.7391 14.63 35.6317 15.0376 35.6375 15.4922C35.6463 15.9359 35.783 16.3954 36.0475 16.8707C36.3082 17.3391 36.6285 17.701 37.0087 17.9564C37.3919 18.2009 37.7969 18.328 38.2234 18.3378C38.6462 18.3406 39.0602 18.2292 39.4657 18.0036C39.8572 17.7858 40.1612 17.493 40.3777 17.1253C40.6012 16.7538 40.7101 16.3407 40.7044 15.8862C40.6986 15.4316 40.5674 14.9736 40.3106 14.5122Z" fill="white"/>
<path d="M55.8298 5.54003C56.5781 5.36747 57.241 5.46502 57.8184 5.83269C58.4017 6.19077 58.7968 6.81804 59.0035 7.71452L59.8663 11.4563L59.0595 11.6424L58.2183 7.99411C58.0583 7.30031 57.7684 6.80887 57.3487 6.51978C56.9291 6.23069 56.4308 6.15265 55.8539 6.28567C55.2537 6.42408 54.8201 6.73341 54.5532 7.21367C54.2863 7.69392 54.24 8.31213 54.4143 9.06829L55.2125 12.5295L54.4056 12.7155L53.5644 9.06724C53.4044 8.37345 53.1146 7.88201 52.6949 7.59292C52.2752 7.30382 51.773 7.22669 51.1884 7.3615C50.5881 7.49991 50.1545 7.80925 49.8876 8.2895C49.6207 8.76976 49.5744 9.38796 49.7488 10.1441L50.5469 13.6053L49.7284 13.794L48.2562 7.40957L49.0747 7.22083L49.3282 8.31999C49.4392 7.87568 49.6584 7.50905 49.9858 7.22009C50.3115 6.92333 50.7043 6.72192 51.1642 6.61586C51.7177 6.48824 52.2315 6.50931 52.7058 6.67909C53.1879 6.84707 53.5818 7.16673 53.8875 7.63809C53.9422 7.09184 54.1455 6.63856 54.4976 6.27824C54.8556 5.90834 55.2997 5.66227 55.8298 5.54003Z" fill="white"/>
<path d="M60.3772 3.74068C60.2101 3.75813 60.0606 3.71342 59.9288 3.60654C59.797 3.49966 59.7219 3.35869 59.7037 3.18364C59.6854 3.0086 59.7301 2.85914 59.8378 2.73528C59.9447 2.60346 60.0817 2.52882 60.2487 2.51137C60.4158 2.49391 60.5653 2.53862 60.6971 2.6455C60.8281 2.74443 60.9027 2.88142 60.921 3.05646C60.9393 3.23151 60.895 3.38494 60.7881 3.51676C60.6813 3.64858 60.5443 3.72322 60.3772 3.74068ZM60.9233 4.92635L61.6041 11.4429L60.7687 11.5302L60.0879 5.01363L60.9233 4.92635Z" fill="white"/>
<path d="M72.205 6.05071C72.4608 5.63666 72.8273 5.31152 73.3047 5.07529C73.7908 4.83201 74.344 4.74517 74.9641 4.81478C75.5524 4.88082 76.0654 5.07929 76.5033 5.41019C76.9499 5.73404 77.2759 6.16509 77.4811 6.70335C77.6952 7.23455 77.7647 7.83405 77.6898 8.50185C77.6148 9.16966 77.4136 9.74279 77.0862 10.2213C76.7667 10.7006 76.3529 11.0526 75.8446 11.2773C75.3444 11.5029 74.8001 11.5827 74.2118 11.5167C73.5996 11.448 73.083 11.2451 72.662 10.908C72.2418 10.563 71.953 10.1602 71.7954 9.69979L71.2893 14.2075L70.4665 14.1151L71.5428 4.52733L72.3656 4.61969L72.205 6.05071ZM76.8431 8.40681C76.9038 7.8662 76.8487 7.38908 76.6777 6.97543C76.5157 6.55472 76.2634 6.22049 75.9209 5.97274C75.5784 5.72499 75.1766 5.57523 74.7155 5.52347C74.2703 5.47349 73.8488 5.53486 73.451 5.70757C73.0612 5.88117 72.7367 6.15467 72.4774 6.52808C72.2182 6.90149 72.0591 7.35054 72.0002 7.87525C71.9413 8.39995 71.9968 8.8731 72.1669 9.2947C72.3369 9.7163 72.5927 10.055 72.9343 10.3107C73.2839 10.5673 73.6813 10.7205 74.1265 10.7705C74.5876 10.8223 75.0126 10.7653 75.4015 10.5997C75.7913 10.4261 76.1118 10.1521 76.3632 9.77783C76.6233 9.39647 76.7833 8.93946 76.8431 8.40681Z" fill="white"/>
<path d="M81.2002 12.7124C80.6027 12.5626 80.0965 12.2954 79.6815 11.911C79.2762 11.5207 78.9952 11.0461 78.8384 10.4872C78.6914 9.92249 78.7005 9.31033 78.8659 8.65075C79.0312 7.99116 79.3149 7.45195 79.7168 7.03312C80.1207 6.60653 80.5962 6.32163 81.1435 6.17842C81.6927 6.02745 82.266 6.02686 82.8635 6.17667C83.4611 6.32647 83.9663 6.59748 84.3793 6.9897C84.8021 7.3761 85.087 7.85166 85.234 8.41638C85.3908 8.97529 85.3865 9.58454 85.2212 10.2441C85.0577 10.8959 84.7741 11.4352 84.3702 11.8617C83.9664 12.2883 83.486 12.5761 82.929 12.7252C82.374 12.8664 81.7977 12.8622 81.2002 12.7124ZM81.3782 12.0023C81.7972 12.1074 82.2086 12.1116 82.6122 12.0148C83.0178 11.9103 83.3769 11.6952 83.6895 11.3694C84.0118 11.0379 84.243 10.5927 84.3831 10.034C84.5232 9.4753 84.5322 8.97859 84.4103 8.54389C84.2903 8.10142 84.0752 7.74232 83.7649 7.46659C83.4566 7.1831 83.0929 6.98883 82.6739 6.88377C82.2549 6.77872 81.8426 6.77844 81.437 6.88294C81.0333 6.97968 80.6742 7.19481 80.3597 7.52833C80.0548 7.85603 79.8324 8.29924 79.6923 8.85795C79.5522 9.41665 79.5383 9.91627 79.6505 10.3568C79.7725 10.7915 79.9837 11.1496 80.2843 11.4312C80.5945 11.7069 80.9592 11.8973 81.3782 12.0023Z" fill="white"/>
<path d="M88.4646 9.12094C88.7766 8.80005 89.1476 8.59837 89.5774 8.51589C90.0147 8.43614 90.4929 8.49031 91.0119 8.67839L90.7134 9.50197L90.499 9.42428C89.9274 9.21712 89.4127 9.20502 88.955 9.388C88.4972 9.57098 88.1375 10.0235 87.8758 10.7455L86.6287 14.1865L85.839 13.9003L88.0715 7.74038L88.8613 8.0266L88.4646 9.12094Z" fill="white"/>
<path d="M93.2494 10.5118L91.5813 14.222C91.4173 14.5869 91.3734 14.8698 91.4497 15.0707C91.526 15.2717 91.7393 15.4509 92.0895 15.6084L92.79 15.9233L92.4947 16.58L91.6739 16.2109C91.134 15.9682 90.7884 15.6637 90.6373 15.2975C90.4894 14.924 90.5451 14.4491 90.8042 13.8727L92.4724 10.1624L91.6406 9.78844L91.9309 9.1427L92.7627 9.51668L93.4368 8.01726L94.2139 8.36663L93.5398 9.86605L95.1815 10.6042L94.8911 11.2499L93.2494 10.5118Z" fill="white"/>
<path d="M98.7587 13.255L97.4189 12.5288L94.634 17.6666L93.8955 17.2663L96.6804 12.1285L95.8786 11.6939L96.216 11.0714L97.0178 11.506L97.2351 11.1051C97.5744 10.4792 97.9823 10.1043 98.4589 9.98045C98.9426 9.86042 99.5431 9.99483 100.26 10.3837L99.9174 11.0167C99.4391 10.7574 99.052 10.6659 98.7559 10.742C98.4669 10.8219 98.2061 11.0764 97.9736 11.5054L97.7563 11.9063L99.0961 12.6326L98.7587 13.255Z" fill="white"/>
<path d="M99.4636 20.6486C98.955 20.301 98.5728 19.8749 98.3168 19.3705C98.072 18.8639 97.9729 18.3213 98.0196 17.7427C98.0774 17.162 98.2982 16.591 98.6819 16.0296C99.0657 15.4683 99.5186 15.0608 100.041 14.8073C100.568 14.5471 101.112 14.4448 101.675 14.5001C102.243 14.5489 102.781 14.7471 103.289 15.0947C103.798 15.4424 104.178 15.8717 104.429 16.3828C104.692 16.8918 104.794 17.4366 104.736 18.0173C104.69 18.5959 104.475 19.1659 104.091 19.7272C103.712 20.282 103.259 20.6895 102.732 20.9496C102.205 21.2097 101.655 21.3132 101.081 21.2599C100.511 21.2 99.9721 20.9962 99.4636 20.6486ZM99.8767 20.0443C100.233 20.2881 100.618 20.4346 101.03 20.4838C101.447 20.5263 101.858 20.449 102.264 20.2518C102.681 20.0526 103.053 19.7152 103.378 19.2396C103.703 18.7641 103.883 18.3014 103.92 17.8513C103.96 17.3947 103.883 16.9833 103.688 16.6171C103.497 16.2443 103.223 15.936 102.866 15.6923C102.51 15.4485 102.123 15.3053 101.706 15.2627C101.294 15.2135 100.883 15.2908 100.472 15.4946C100.073 15.6963 99.7103 16.035 99.3853 16.5105C99.0602 16.986 98.874 17.4498 98.8265 17.9019C98.7902 18.3519 98.8642 18.7611 99.0486 19.1293C99.244 19.4955 99.52 19.8005 99.8767 20.0443Z" fill="white"/>
<path d="M109.93 17.2575L104.246 24.0806L103.601 23.543L109.284 16.7199L109.93 17.2575Z" fill="white"/>
<path d="M111.769 20.3003C111.647 20.1855 111.583 20.0433 111.577 19.8737C111.572 19.704 111.629 19.555 111.749 19.4266C111.87 19.2981 112.012 19.234 112.176 19.2343C112.346 19.2288 112.492 19.2834 112.614 19.3983C112.737 19.5131 112.801 19.6553 112.807 19.8249C112.818 19.9887 112.763 20.1348 112.643 20.2633C112.522 20.3917 112.377 20.4587 112.208 20.4643C112.038 20.4698 111.892 20.4152 111.769 20.3003ZM111.231 21.4896L106.752 26.2715L106.139 25.6973L110.618 20.9153L111.231 21.4896Z" fill="white"/>
<path d="M110.157 29.8404C109.75 29.3788 109.483 28.8721 109.359 28.3203C109.246 27.7692 109.282 27.2188 109.469 26.6693C109.668 26.1205 110.022 25.6209 110.531 25.1707C111.041 24.7205 111.58 24.4364 112.148 24.3186C112.723 24.1954 113.276 24.2296 113.808 24.4213C114.347 24.6076 114.82 24.9316 115.227 25.3932C115.635 25.8548 115.898 26.3642 116.017 26.9213C116.147 27.4791 116.113 28.0324 115.914 28.5813C115.727 29.1308 115.379 29.6307 114.869 30.0809C114.366 30.5258 113.827 30.8099 113.252 30.933C112.678 31.0562 112.119 31.0216 111.576 30.8293C111.038 30.6317 110.565 30.3021 110.157 29.8404ZM110.706 29.3558C110.992 29.6795 111.329 29.9157 111.716 30.0644C112.11 30.2077 112.528 30.2336 112.97 30.1419C113.423 30.0509 113.866 29.8148 114.297 29.4334C114.729 29.052 115.018 28.6476 115.163 28.2202C115.315 27.7875 115.34 27.3697 115.241 26.9668C115.147 26.5586 114.957 26.1926 114.671 25.8689C114.385 25.5451 114.045 25.3116 113.652 25.1682C113.264 25.0195 112.846 24.9937 112.398 25.0907C111.961 25.1883 111.527 25.4279 111.095 25.8092C110.664 26.1906 110.37 26.5946 110.213 27.0213C110.067 27.4488 110.039 27.8636 110.127 28.2658C110.227 28.6687 110.42 29.032 110.706 29.3558Z" fill="white"/>
</svg>
